# xmcd CD database file
#
# Track frame offsets:
#	150
#	21759
#	47305
#	75989
#	105369
#	129847
#	157298
#	186194
#	211166
#	235403
#	262137
#
# Disc length: 3803 seconds
#
# Revision: 0
# Processed by: cddbd v1.5.2PL0 Copyright (c) Steve Scherf et al.
# Submitted via: CDex 1.70beta2
#
DISCID=860ed90b
DTITLE=Kenny Barron Ensemble - A Table For Two
DYEAR=2004
DGENRE=Jazz
TTITLE0=Say It Over And Over Again
TTITLE1=Stolen Moments
TTITLE2=Estate
TTITLE3=The Very Thought Of You
TTITLE4=Alfie
TTITLE5=Berceuse
TTITLE6=I Only Have Eyes For You
TTITLE7=Phantoms
TTITLE8=Very Early
TTITLE9=Blame It On My Youth
TTITLE10=In A Sentimental Mood
EXTD=YEAR: 2004
EXTT0=
EXTT1=
EXTT2=
EXTT3=
EXTT4=
EXTT5=
EXTT6=
EXTT7=
EXTT8=
EXTT9=
EXTT10=
PLAYORDER=
